<svg xmlns="http://www.w3.org/2000/svg" style="display: none;">

    <!-- API icon -->

    <symbol id="icon-api" viewBox="0 0 24 24">
    <title>API</title>
        <path d="M7 7H5A2 2 0 0 0 3 9V17H5V13H7V17H9V9A2 2 0 0 0 7 7M7 11H5V9H7M14 7H10V17H12V13H14A2 2 0 0 0 16 11V9A2 2 0 0 0 14 7M14 11H12V9H14M20 9V15H21V17H17V15H18V9H17V7H21V9Z" />
    </symbol>

    <!-- aws icon -->

    <symbol id="icon-aws" viewBox="0 0 24 24">
    <title>AWS</title>
        <path d="M7.64,10.38C7.64,10.63 7.66,10.83 7.71,11C7.76,11.12 7.83,11.28 7.92,11.46C7.96,11.5 7.97,11.56 7.97,11.61C7.97,11.68 7.93,11.74 7.84,11.81L7.42,12.09C7.36,12.13 7.3,12.15 7.25,12.15C7.18,12.15 7.12,12.11 7.05,12.05C6.96,11.95 6.88,11.85 6.81,11.74C6.75,11.63 6.68,11.5 6.61,11.35C6.09,11.96 5.44,12.27 4.65,12.27C4.09,12.27 3.65,12.11 3.32,11.79C3,11.47 2.83,11.04 2.83,10.5C2.83,9.95 3.03,9.5 3.43,9.14C3.84,8.8 4.38,8.62 5.06,8.62C5.29,8.62 5.5,8.64 5.77,8.68C6,8.71 6.27,8.76 6.53,8.82V8.34C6.53,7.83 6.43,7.5 6.22,7.27C6,7.06 5.65,6.97 5.14,6.97C4.9,6.97 4.66,7 4.42,7.05C4.17,7.11 3.93,7.18 3.7,7.28C3.59,7.32 3.5,7.35 3.47,7.36C3.42,7.38 3.39,7.38 3.36,7.38C3.27,7.38 3.22,7.32 3.22,7.18V6.85C3.22,6.75 3.23,6.67 3.27,6.62C3.3,6.57 3.36,6.53 3.45,6.5C3.69,6.36 3.96,6.26 4.29,6.18C4.62,6.09 4.96,6.05 5.33,6.05C6.12,6.05 6.7,6.23 7.07,6.59C7.44,6.95 7.62,7.5 7.62,8.23V10.38H7.64M4.94,11.4C5.16,11.4 5.38,11.36 5.62,11.28C5.86,11.2 6.07,11.05 6.25,10.85C6.36,10.72 6.44,10.58 6.5,10.42C6.5,10.26 6.55,10.07 6.55,9.84V9.57C6.35,9.5 6.15,9.5 5.93,9.45C5.72,9.43 5.5,9.41 5.31,9.41C4.86,9.41 4.54,9.5 4.32,9.68C4.1,9.86 4,10.11 4,10.44C4,10.76 4.07,11 4.24,11.15C4.4,11.32 4.63,11.4 4.94,11.4M10.28,12.11C10.16,12.11 10.08,12.09 10,12.05C9.97,12 9.92,11.91 9.88,11.79L8.32,6.65C8.28,6.5 8.26,6.43 8.26,6.38C8.26,6.27 8.31,6.21 8.42,6.21H9.07C9.2,6.21 9.29,6.23 9.33,6.28C9.39,6.32 9.43,6.41 9.47,6.54L10.58,10.94L11.62,6.54C11.65,6.41 11.69,6.32 11.75,6.28C11.8,6.24 11.89,6.21 12,6.21H12.55C12.67,6.21 12.76,6.23 12.81,6.28C12.86,6.32 12.91,6.41 12.94,6.54L14,11L15.14,6.54C15.18,6.41 15.23,6.32 15.27,6.28C15.33,6.24 15.41,6.21 15.53,6.21H16.15C16.26,6.21 16.32,6.27 16.32,6.38C16.32,6.41 16.31,6.45 16.3,6.5C16.3,6.5 16.28,6.58 16.26,6.65L14.65,11.79C14.61,11.93 14.57,12 14.5,12.05C14.46,12.09 14.37,12.12 14.26,12.12H13.69C13.56,12.12 13.5,12.1 13.42,12.05C13.37,12 13.32,11.92 13.3,11.79L12.27,7.5L11.24,11.78C11.21,11.91 11.17,12 11.12,12.05C11.06,12.09 10.97,12.11 10.85,12.11H10.28M18.83,12.29C18.5,12.29 18.13,12.25 17.8,12.17C17.47,12.09 17.21,12 17.04,11.91C16.93,11.85 16.86,11.78 16.83,11.72C16.8,11.66 16.79,11.6 16.79,11.54V11.2C16.79,11.06 16.84,11 16.94,11C17,11 17,11 17.06,11C17.1,11 17.16,11.05 17.23,11.08C17.45,11.18 17.7,11.26 17.96,11.31C18.23,11.36 18.5,11.39 18.75,11.39C19.17,11.39 19.5,11.32 19.72,11.17C19.95,11 20.07,10.81 20.07,10.54C20.07,10.35 20,10.2 19.89,10.07C19.77,9.95 19.54,9.83 19.22,9.73L18.25,9.43C17.77,9.27 17.41,9.05 17.19,8.75C16.97,8.46 16.86,8.13 16.86,7.78C16.86,7.5 16.92,7.26 17.04,7.05C17.16,6.83 17.32,6.65 17.5,6.5C17.72,6.35 17.94,6.24 18.21,6.16C18.47,6.08 18.75,6.04 19.05,6.04C19.19,6.04 19.34,6.05 19.5,6.07C19.64,6.09 19.78,6.12 19.92,6.14C20.06,6.18 20.18,6.21 20.3,6.25C20.42,6.29 20.5,6.33 20.58,6.37C20.67,6.42 20.74,6.47 20.78,6.53C20.82,6.59 20.84,6.66 20.84,6.75V7.07C20.84,7.21 20.79,7.28 20.69,7.28C20.64,7.28 20.55,7.25 20.43,7.2C20.06,7.03 19.63,6.94 19.16,6.94C18.78,6.94 18.5,7 18.27,7.13C18.07,7.25 17.96,7.45 17.96,7.72C17.96,7.91 18.03,8.07 18.16,8.19C18.29,8.32 18.54,8.44 18.89,8.56L19.84,8.86C20.32,9 20.66,9.22 20.87,9.5C21.07,9.77 21.17,10.08 21.17,10.43C21.17,10.71 21.11,10.97 21,11.2C20.88,11.42 20.72,11.62 20.5,11.78C20.31,11.95 20.06,12.07 19.78,12.16C19.5,12.25 19.16,12.29 18.83,12.29M20.08,15.53C17.89,17.14 14.71,18 12,18C8.15,18 4.7,16.58 2.09,14.23C1.88,14.04 2.07,13.79 2.32,13.94C5.14,15.57 8.61,16.56 12.21,16.56C14.64,16.56 17.31,16.06 19.76,15C20.13,14.85 20.44,15.26 20.08,15.53M21,14.5C20.71,14.13 19.14,14.32 18.43,14.4C18.22,14.43 18.19,14.24 18.38,14.1C19.63,13.23 21.69,13.5 21.92,13.77C22.16,14.07 21.86,16.13 20.69,17.11C20.5,17.26 20.33,17.18 20.41,17C20.68,16.32 21.27,14.84 21,14.5Z" />
    </symbol>

    <!-- bash icon -->

    <symbol id="icon-bash" viewBox="0 0 24 24">
    <title>Bash/Shell</title>
        <path d="M5 9H7.31L7.63 6H9.63L9.31 9H11.31L11.63 6H13.63L13.31 9H15V11H13.1L12.9 13H15V15H12.69L12.37 18H10.37L10.69 15H8.69L8.37 18H6.37L6.69 15H5V13H6.9L7.1 11H5V9M9.1 11L8.9 13H10.9L11.1 11M19 6H17V14H19M19 16H17V18H19Z" />
    </symbol>

    <!-- C++ icon -->

    <symbol id="icon-c++" viewBox="0 0 24 24">
    <title>C++</title>
        <path d="M10.5,15.97L10.91,18.41C10.65,18.55 10.23,18.68 9.67,18.8C9.1,18.93 8.43,19 7.66,19C5.45,18.96 3.79,18.3 2.68,17.04C1.56,15.77 1,14.16 1,12.21C1.05,9.9 1.72,8.13 3,6.89C4.32,5.64 5.96,5 7.94,5C8.69,5 9.34,5.07 9.88,5.19C10.42,5.31 10.82,5.44 11.08,5.59L10.5,8.08L9.44,7.74C9.04,7.64 8.58,7.59 8.05,7.59C6.89,7.58 5.93,7.95 5.18,8.69C4.42,9.42 4.03,10.54 4,12.03C4,13.39 4.37,14.45 5.08,15.23C5.79,16 6.79,16.4 8.07,16.41L9.4,16.29C9.83,16.21 10.19,16.1 10.5,15.97M11,11H13V9H15V11H17V13H15V15H13V13H11V11M18,11H20V9H22V11H24V13H22V15H20V13H18V11Z" />
    </symbol>

    <!-- code block braces icon -->

    <symbol id="icon-code-block-braces" viewBox="0 0 24 24">
    <title>Code Block Braces</title>
        <path d="M5 3C3.9 3 3 3.9 3 5S2.1 7 1 7V9C2.1 9 3 9.9 3 11S3.9 13 5 13H7V11H5V10C5 8.9 4.1 8 3 8C4.1 8 5 7.1 5 6V5H7V3M11 3C12.1 3 13 3.9 13 5S13.9 7 15 7V9C13.9 9 13 9.9 13 11S12.1 13 11 13H9V11H11V10C11 8.9 11.9 8 13 8C11.9 8 11 7.1 11 6V5H9V3H11M22 6V18C22 19.11 21.11 20 20 20H4C2.9 20 2 19.11 2 18V15H4V18H20V6H17.03V4H20C21.11 4 22 4.89 22 6Z" />
    </symbol>

    <!-- console icon -->

    <symbol id="icon-console" viewBox="0 0 24 24">
    <title>Console</title>
        <path d="M20,19V7H4V19H20M20,3A2,2 0 0,1 22,5V19A2,2 0 0,1 20,21H4A2,2 0 0,1 2,19V5C2,3.89 2.9,3 4,3H20M13,17V15H18V17H13M9.58,13L5.57,9H8.4L11.7,12.3C12.09,12.69 12.09,13.33 11.7,13.72L8.42,17H5.59L9.58,13Z" />
    </symbol>

    <!-- css3 icon -->

    <symbol id="icon-css3" viewBox="0 0 24 24">
    <title>CSS3</title>
        <path d="M5,3L4.35,6.34H17.94L17.5,8.5H3.92L3.26,11.83H16.85L16.09,15.64L10.61,17.45L5.86,15.64L6.19,14H2.85L2.06,18L9.91,21L18.96,18L20.16,11.97L20.4,10.76L21.94,3H5Z" />
    </symbol>

    <!-- database icon -->

    <symbol id="icon-database" viewBox="0 0 24 24">
    <title>Database</title>
        <path d="M12,3C7.58,3 4,4.79 4,7C4,9.21 7.58,11 12,11C16.42,11 20,9.21 20,7C20,4.79 16.42,3 12,3M4,9V12C4,14.21 7.58,16 12,16C16.42,16 20,14.21 20,12V9C20,11.21 16.42,13 12,13C7.58,13 4,11.21 4,9M4,14V17C4,19.21 7.58,21 12,21C16.42,21 20,19.21 20,17V14C20,16.21 16.42,18 12,18C7.58,18 4,16.21 4,14Z" />
    </symbol>

    <!-- docker icon -->

    <symbol id="icon-docker" viewBox="0 0 24 24">
    <title>Docker</title>
        <path d="M21.81 10.25C21.75 10.21 21.25 9.82 20.17 9.82C19.89 9.82 19.61 9.85 19.33 9.9C19.12 8.5 17.95 7.79 17.9 7.76L17.61 7.59L17.43 7.86C17.19 8.22 17 8.63 16.92 9.05C16.72 9.85 16.84 10.61 17.25 11.26C16.76 11.54 15.96 11.61 15.79 11.61H2.62C2.28 11.61 2 11.89 2 12.24C2 13.39 2.18 14.54 2.58 15.62C3.03 16.81 3.71 17.69 4.58 18.23C5.56 18.83 7.17 19.17 9 19.17C9.79 19.17 10.61 19.1 11.42 18.95C12.54 18.75 13.62 18.36 14.61 17.79C15.43 17.32 16.16 16.72 16.78 16C17.83 14.83 18.45 13.5 18.9 12.35H19.09C20.23 12.35 20.94 11.89 21.33 11.5C21.59 11.26 21.78 10.97 21.92 10.63L22 10.39L21.81 10.25M3.85 11.24H5.61C5.69 11.24 5.77 11.17 5.77 11.08V9.5C5.77 9.42 5.7 9.34 5.61 9.34H3.85C3.76 9.34 3.69 9.41 3.69 9.5V11.08C3.7 11.17 3.76 11.24 3.85 11.24M6.28 11.24H8.04C8.12 11.24 8.2 11.17 8.2 11.08V9.5C8.2 9.42 8.13 9.34 8.04 9.34H6.28C6.19 9.34 6.12 9.41 6.12 9.5V11.08C6.13 11.17 6.19 11.24 6.28 11.24M8.75 11.24H10.5C10.6 11.24 10.67 11.17 10.67 11.08V9.5C10.67 9.42 10.61 9.34 10.5 9.34H8.75C8.67 9.34 8.6 9.41 8.6 9.5V11.08C8.6 11.17 8.66 11.24 8.75 11.24M11.19 11.24H12.96C13.04 11.24 13.11 11.17 13.11 11.08V9.5C13.11 9.42 13.05 9.34 12.96 9.34H11.19C11.11 9.34 11.04 9.41 11.04 9.5V11.08C11.04 11.17 11.11 11.24 11.19 11.24M6.28 9H8.04C8.12 9 8.2 8.91 8.2 8.82V7.25C8.2 7.16 8.13 7.09 8.04 7.09H6.28C6.19 7.09 6.12 7.15 6.12 7.25V8.82C6.13 8.91 6.19 9 6.28 9M8.75 9H10.5C10.6 9 10.67 8.91 10.67 8.82V7.25C10.67 7.16 10.61 7.09 10.5 7.09H8.75C8.67 7.09 8.6 7.15 8.6 7.25V8.82C8.6 8.91 8.66 9 8.75 9M11.19 9H12.96C13.04 9 13.11 8.91 13.11 8.82V7.25C13.11 7.16 13.04 7.09 12.96 7.09H11.19C11.11 7.09 11.04 7.15 11.04 7.25V8.82C11.04 8.91 11.11 9 11.19 9M11.19 6.72H12.96C13.04 6.72 13.11 6.65 13.11 6.56V5C13.11 4.9 13.04 4.83 12.96 4.83H11.19C11.11 4.83 11.04 4.89 11.04 5V6.56C11.04 6.64 11.11 6.72 11.19 6.72M13.65 11.24H15.41C15.5 11.24 15.57 11.17 15.57 11.08V9.5C15.57 9.42 15.5 9.34 15.41 9.34H13.65C13.57 9.34 13.5 9.41 13.5 9.5V11.08C13.5 11.17 13.57 11.24 13.65 11.24" />
    </symbol>

    <!-- code file/badge icon -->

    <symbol id="icon-code-file" viewBox="0 0 24 24">
    <title>Code File</title>
        <path d="M14 2H6C4.89 2 4 2.9 4 4V20C4 21.11 4.89 22 6 22H18C19.11 22 20 21.11 20 20V8L14 2M18 20H6V4H13V9H18V20M9.54 15.65L11.63 17.74L10.35 19L7 15.65L10.35 12.3L11.63 13.56L9.54 15.65M17 15.65L13.65 19L12.38 17.74L14.47 15.65L12.38 13.56L13.65 12.3L17 15.65Z" />
    </symbol>

    <!-- git icon -->

    <symbol id="icon-git" viewBox="0 0 24 24">
    <title>Git</title>
        <path d="M2.6,10.59L8.38,4.8L10.07,6.5C9.83,7.35 10.22,8.28 11,8.73V14.27C10.4,14.61 10,15.26 10,16A2,2 0 0,0 12,18A2,2 0 0,0 14,16C14,15.26 13.6,14.61 13,14.27V9.41L15.07,11.5C15,11.65 15,11.82 15,12A2,2 0 0,0 17,14A2,2 0 0,0 19,12A2,2 0 0,0 17,10C16.82,10 16.65,10 16.5,10.07L13.93,7.5C14.19,6.57 13.71,5.55 12.78,5.16C12.35,5 11.9,4.96 11.5,5.07L9.8,3.38L10.59,2.6C11.37,1.81 12.63,1.81 13.41,2.6L21.4,10.59C22.19,11.37 22.19,12.63 21.4,13.41L13.41,21.4C12.63,22.19 11.37,22.19 10.59,21.4L2.6,13.41C1.81,12.63 1.81,11.37 2.6,10.59Z" />
    </symbol>

    <!-- goal/target icon -->

    <symbol id="icon-goal" viewBox="0 0 16 16" width="16" height="16">
        <path fill="gold" d="M13.637 2.363h-.001l1.676.335c.09.018.164.084.19.173a.25.25 0 0 1-.062.249l-1.373 1.374a.876.876 0 0 1-.619.256H12.31L9.45 7.611A1.5 1.5 0 1 1 6.5 8a1.501 1.501 0 0 1 1.889-1.449l2.861-2.862V2.552c0-.232.092-.455.256-.619L12.88.559a.25.25 0 0 1 .249-.062c.089.026.155.1.173.19Z"></path><path fill="#ffdb70" d="M2 8a6 6 0 1 0 11.769-1.656.751.751 0 1 1 1.442-.413 7.502 7.502 0 0 1-12.513 7.371A7.501 7.501 0 0 1 10.069.789a.75.75 0 0 1-.413 1.442A6.001 6.001 0 0 0 2 8Z"></path><path fill="#ffdb70" d="M5 8a3.002 3.002 0 0 0 4.699 2.476 3 3 0 0 0 1.28-2.827.748.748 0 0 1 1.045-.782.75.75 0 0 1 .445.61A4.5 4.5 0 1 1 8.516 3.53a.75.75 0 1 1-.17 1.49A3 3 0 0 0 5 8Z"></path>
    </symbol>

    <!-- google cloud icon -->

    <symbol id="icon-google-cloud" viewBox="0 0 24 24">
    <title>Google Cloud</title>
        <path d="M23 14.75C23 18.2 20.2 21 16.75 21H7.25C3.8 21 1 18.2 1 14.75C1 12.61 2.08 10.72 3.71 9.6C4.58 5.82 7.96 3 12 3C16.04 3 19.42 5.82 20.29 9.6C21.93 10.72 23 12.61 23 14.75M16.63 17C17.94 17 19 15.94 19 14.63C19 13.35 18 12.3 16.72 12.25L16.75 11.75C16.75 9.13 14.62 7 12 7C10.58 7 9.3 7.62 8.43 8.61C9.93 8.9 11.23 9.72 12.14 10.86L9.5 13.5C9.08 12.77 8.29 12.25 7.38 12.25C6.06 12.25 5 13.31 5 14.63C5 15.9 6 16.93 7.25 17V17H16.63Z" />
    </symbol>

    <!-- html5 icon -->

    <symbol id="icon-html5" viewBox="0 0 24 24">
    <title>HTML5</title>
        <path d="M12,17.56L16.07,16.43L16.62,10.33H9.38L9.2,8.3H16.8L17,6.31H7L7.56,12.32H14.45L14.22,14.9L12,15.5L9.78,14.9L9.64,13.24H7.64L7.93,16.43L12,17.56M4.07,3H19.93L18.5,19.2L12,21L5.5,19.2L4.07,3Z" />
    </symbol>

    <!-- java icon -->

    <symbol id="icon-java" viewBox="0 0 24 24">
    <title>Java</title>
        <path d="M16.5,6.08C16.5,6.08 9.66,7.79 12.94,11.56C13.91,12.67 12.69,13.67 12.69,13.67C12.69,13.67 15.14,12.42 14,10.82C12.94,9.35 12.14,8.62 16.5,6.08M12.03,7.28C16.08,4.08 14,2 14,2C14.84,5.3 11.04,6.3 9.67,8.36C8.73,9.76 10.13,11.27 12,13C11.29,11.3 8.78,9.84 12.03,7.28M9.37,17.47C6.29,18.33 11.25,20.1 15.16,18.43C14.78,18.28 14.41,18.1 14.06,17.89C12.7,18.2 11.3,18.26 9.92,18.07C8.61,17.91 9.37,17.47 9.37,17.47M14.69,15.79C12.94,16.17 11.13,16.26 9.35,16.05C8.04,15.92 8.9,15.28 8.9,15.28C5.5,16.41 10.78,17.68 15.5,16.3C15.21,16.19 14.93,16 14.69,15.79M18.11,19.09C18.11,19.09 18.68,19.56 17.5,19.92C15.22,20.6 8.07,20.81 6.09,19.95C5.38,19.64 6.72,19.21 7.14,19.12C7.37,19.06 7.6,19.04 7.83,19.04C7.04,18.5 2.7,20.14 5.64,20.6C13.61,21.9 20.18,20 18.11,19.09M15.37,14.23C15.66,14.04 15.97,13.88 16.29,13.74C16.29,13.74 14.78,14 13.27,14.14C11.67,14.3 10.06,14.32 8.46,14.2C6.11,13.89 9.75,13 9.75,13C8.65,13 7.57,13.26 6.59,13.75C4.54,14.75 11.69,15.2 15.37,14.23M16.27,16.65C16.25,16.69 16.23,16.72 16.19,16.75C21.2,15.44 19.36,12.11 16.96,12.94C16.83,13 16.72,13.08 16.65,13.19C16.79,13.14 16.93,13.1 17.08,13.07C18.28,12.83 20,14.7 16.27,16.65M16.4,21.26C13.39,21.78 10.31,21.82 7.28,21.4C7.28,21.4 7.74,21.78 10.09,21.93C13.69,22.16 19.22,21.8 19.35,20.1C19.38,20.11 19.12,20.75 16.4,21.26Z" />
    </symbol>

    <!-- javascript icon -->

    <symbol id="icon-javascript" viewBox="0 0 24 24">
    <title>JavaScript</title>
        <path d="M3,3H21V21H3V3M7.73,18.04C8.13,18.89 8.92,19.59 10.27,19.59C11.77,19.59 12.8,18.79 12.8,17.04V11.26H11.1V17C11.1,17.86 10.75,18.08 10.2,18.08C9.62,18.08 9.38,17.68 9.11,17.21L7.73,18.04M13.71,17.86C14.21,18.84 15.22,19.59 16.8,19.59C18.4,19.59 19.6,18.76 19.6,17.23C19.6,15.82 18.79,15.19 17.35,14.57L16.93,14.39C16.2,14.08 15.89,13.87 15.89,13.37C15.89,12.96 16.2,12.64 16.7,12.64C17.18,12.64 17.5,12.85 17.79,13.37L19.1,12.5C18.55,11.54 17.77,11.17 16.7,11.17C15.19,11.17 14.22,12.13 14.22,13.4C14.22,14.78 15.03,15.43 16.25,15.95L16.67,16.13C17.45,16.47 17.91,16.68 17.91,17.26C17.91,17.74 17.46,18.09 16.76,18.09C15.93,18.09 15.45,17.66 15.09,17.06L13.71,17.86Z" />
    </symbol>

    <!-- latex icon -->

    <symbol id="icon-latex" viewBox="0 0 128 128">
    <title>Latex</title>
        <path d="M29.2 63H28c-.5 5.1-1.2 11.3-10 11.3h-4c-2.3 0-2.4-.3-2.4-2V45.8c0-1.7 0-2.4 4.7-2.4h1.6v-1.5c-1.9.1-6.3.1-8.4.1-1.9 0-5.8 0-7.5-.1v1.5h1.1c3.8 0 3.9.5 3.9 2.3v26.1c0 1.8-.1 2.3-3.9 2.3H2v1.5h25.8L29.2 63z"/><path d="M28.3 41.8c-.2-.6-.3-.8-.9-.8s-.8.2-1 .8l-8 20.3c-.3.8-.9 2.4-4 2.4v1.2h7.7v-1.2c-1.5 0-2.5-.7-2.5-1.7 0-.2 0-.3.1-.7l1.7-4.3h9.9l2 5.1c.1.2.2.4.2.6 0 1-1.9 1-2.8 1v1.2h9.8v-1.2h-.7c-2.3 0-2.6-.3-2.9-1.3l-8.6-21.4zm-1.9 3.6l4.4 11.3h-8.9l4.5-11.3z"/><path d="M68.2 42.2H37.9L37 53.3h1.2c.7-8 1.4-9.7 9-9.7.9 0 2.2 0 2.7.1 1 .2 1 .7 1 1.9v26.1c0 1.7 0 2.4-5.2 2.4h-2v1.5c2-.1 7.1-.1 9.4-.1s7.4 0 9.5.1v-1.5h-2c-5.2 0-5.2-.7-5.2-2.4v-26c0-1 0-1.7.9-1.9.5-.1 1.9-.1 2.8-.1 7.5 0 8.2 1.6 8.9 9.7h1.2l-1-11.2z"/><path d="M94.9 74.2h-1.2c-1.2 7.6-2.4 11.3-10.9 11.3h-6.6c-2.3 0-2.4-.3-2.4-2V70.2h4.4c4.8 0 5.4 1.6 5.4 5.8h1.2V62.9h-1.2c0 4.2-.5 5.8-5.4 5.8h-4.4v-12c0-1.6.1-2 2.4-2h6.4c7.6 0 8.9 2.7 9.7 9.7h1.2l-1.4-11.2H64.2v1.5h1.1c3.8 0 3.9.5 3.9 2.3v26c0 1.8-.1 2.3-3.9 2.3h-1.1V87h28.6l2.1-12.8z"/><path d="M109.9 56.6l6.8-10c1-1.6 2.7-3.2 7.2-3.2v-1.5H112v1.5c2 0 3.1 1.1 3.1 2.3 0 .5-.1.6-.4 1.1l-5.7 8.4-6.4-9.6c-.1-.1-.3-.5-.3-.7 0-.6 1.1-1.4 3.2-1.5v-1.5c-1.7.1-5.3.1-7.2.1-1.5 0-4.6 0-6.5-.1v1.5h.9c2.7 0 3.7.3 4.6 1.7l9.1 13.8-8.1 12c-.7 1-2.2 3.3-7.2 3.3v1.5H103v-1.5c-2.3 0-3.1-1.4-3.1-2.3 0-.4.1-.6.5-1.2l7-10.4 7.9 11.9c.1.2.2.4.2.5 0 .6-1.1 1.4-3.2 1.5v1.5c1.7-.1 5.4-.1 7.2-.1 2.1 0 4.4 0 6.5.1v-1.5h-.9c-2.6 0-3.6-.2-4.7-1.8l-10.5-15.8z"/>
    </symbol>

    <!-- linux icon -->

    <symbol id="icon-linux" viewBox="0 0 24 24">
    <title>Linux</title>
        <path d="M19,16C19,17.72 18.37,19.3 17.34,20.5C17.75,20.89 18,21.41 18,22H6C6,21.41 6.25,20.89 6.66,20.5C5.63,19.3 5,17.72 5,16H3C3,14.75 3.57,13.64 4.46,12.91L4.47,12.89C6,11.81 7,10 7,8V7A5,5 0 0,1 12,2A5,5 0 0,1 17,7V8C17,10 18,11.81 19.53,12.89L19.54,12.91C20.43,13.64 21,14.75 21,16H19M16,16A4,4 0 0,0 12,12A4,4 0 0,0 8,16A4,4 0 0,0 12,20A4,4 0 0,0 16,16M10,9L12,10.5L14,9L12,7.5L10,9M10,5A1,1 0 0,0 9,6A1,1 0 0,0 10,7A1,1 0 0,0 11,6A1,1 0 0,0 10,5M14,5A1,1 0 0,0 13,6A1,1 0 0,0 14,7A1,1 0 0,0 15,6A1,1 0 0,0 14,5Z" />
    </symbol>

    <!-- markdown icon -->

    <symbol id="icon-markdown" viewBox="0 0 24 24">
    <title>Markdown</title>
        <path d="M20.56 18H3.44C2.65 18 2 17.37 2 16.59V7.41C2 6.63 2.65 6 3.44 6H20.56C21.35 6 22 6.63 22 7.41V16.59C22 17.37 21.35 18 20.56 18M6.81 15.19V11.53L8.73 13.88L10.65 11.53V15.19H12.58V8.81H10.65L8.73 11.16L6.81 8.81H4.89V15.19H6.81M19.69 12H17.77V8.81H15.85V12H13.92L16.81 15.28L19.69 12Z" />
    </symbol>

    <!-- microsoft azure icon -->

    <symbol id="icon-microsoft-azure" viewBox="0 0 24 24">
    <title>Microsoft Azure</title>
        <path d="M13.05,4.24L6.56,18.05L2,18L7.09,9.24L13.05,4.24M13.75,5.33L22,19.76H6.74L16.04,18.1L11.17,12.31L13.75,5.33Z" />
    </symbol>

    <!-- open source icon -->

    <symbol id="icon-open-source" viewBox="0 0 24 24">
    <title>Open Source</title>
        <path d="M15.41,22C15.35,22 15.28,22 15.22,22C15.1,21.95 15,21.85 14.96,21.73L12.74,15.93C12.65,15.69 12.77,15.42 13,15.32C13.71,15.06 14.28,14.5 14.58,13.83C15.22,12.4 14.58,10.73 13.15,10.09C11.72,9.45 10.05,10.09 9.41,11.5C9.11,12.21 9.09,13 9.36,13.69C9.66,14.43 10.25,15 11,15.28C11.24,15.37 11.37,15.64 11.28,15.89L9,21.69C8.96,21.81 8.87,21.91 8.75,21.96C8.63,22 8.5,22 8.39,21.96C3.24,19.97 0.67,14.18 2.66,9.03C4.65,3.88 10.44,1.31 15.59,3.3C18.06,4.26 20.05,6.15 21.13,8.57C22.22,11 22.29,13.75 21.33,16.22C20.32,18.88 18.23,21 15.58,22C15.5,22 15.47,22 15.41,22M12,3.59C7.03,3.46 2.9,7.39 2.77,12.36C2.68,16.08 4.88,19.47 8.32,20.9L10.21,16C8.38,15 7.69,12.72 8.68,10.89C9.67,9.06 11.96,8.38 13.79,9.36C15.62,10.35 16.31,12.64 15.32,14.47C14.97,15.12 14.44,15.65 13.79,16L15.68,20.93C17.86,19.95 19.57,18.16 20.44,15.93C22.28,11.31 20.04,6.08 15.42,4.23C14.33,3.8 13.17,3.58 12,3.59Z" />
    </symbol>

    <!-- powershell icon -->

    <symbol id="icon-powershell" viewBox="0 0 24 24">
    <title>Powershell</title>
        <path d="M21.83,4C22.32,4 22.63,4.4 22.5,4.89L19.34,19.11C19.23,19.6 18.75,20 18.26,20H2.17C1.68,20 1.37,19.6 1.5,19.11L4.66,4.89C4.77,4.4 5.25,4 5.74,4H21.83M15.83,16H11.83C11.37,16 11,16.38 11,16.84C11,17.31 11.37,17.69 11.83,17.69H15.83C16.3,17.69 16.68,17.31 16.68,16.84C16.68,16.38 16.3,16 15.83,16M5.78,16.28C5.38,16.56 5.29,17.11 5.57,17.5C5.85,17.92 6.41,18 6.81,17.73C14.16,12.56 14.21,12.5 14.26,12.47C14.44,12.31 14.53,12.09 14.54,11.87C14.55,11.67 14.5,11.5 14.38,11.31L9.46,6.03C9.13,5.67 8.57,5.65 8.21,6C7.85,6.32 7.83,6.88 8.16,7.24L12.31,11.68L5.78,16.28Z" />
    </symbol>

    <!-- python icon -->

    <symbol id="icon-python" viewBox="0 0 24 24">
    <title>Python</title>
        <path d="M19.14,7.5A2.86,2.86 0 0,1 22,10.36V14.14A2.86,2.86 0 0,1 19.14,17H12C12,17.39 12.32,17.96 12.71,17.96H17V19.64A2.86,2.86 0 0,1 14.14,22.5H9.86A2.86,2.86 0 0,1 7,19.64V15.89C7,14.31 8.28,13.04 9.86,13.04H15.11C16.69,13.04 17.96,11.76 17.96,10.18V7.5H19.14M14.86,19.29C14.46,19.29 14.14,19.59 14.14,20.18C14.14,20.77 14.46,20.89 14.86,20.89A0.71,0.71 0 0,0 15.57,20.18C15.57,19.59 15.25,19.29 14.86,19.29M4.86,17.5C3.28,17.5 2,16.22 2,14.64V10.86C2,9.28 3.28,8 4.86,8H12C12,7.61 11.68,7.04 11.29,7.04H7V5.36C7,3.78 8.28,2.5 9.86,2.5H14.14C15.72,2.5 17,3.78 17,5.36V9.11C17,10.69 15.72,11.96 14.14,11.96H8.89C7.31,11.96 6.04,13.24 6.04,14.82V17.5H4.86M9.14,5.71C9.54,5.71 9.86,5.41 9.86,4.82C9.86,4.23 9.54,4.11 9.14,4.11C8.75,4.11 8.43,4.23 8.43,4.82C8.43,5.41 8.75,5.71 9.14,5.71Z" />
    </symbol>

    <!-- R icon -->

    <symbol id="icon-r" viewBox="0 0 24 24">
    <title>R (Language)</title>
        <path d="M12,4.29C6.5,4.29 2,7.29 2,11C2,14.28 5.56,17 10.24,17.58V19.71H13.65V17.59C14.5,17.5 15.29,17.34 16.04,17.11L17.42,19.71H21.28L18.96,15.8C20.83,14.58 22,12.87 22,11C22,7.29 17.5,4.29 12,4.29V4.29M13.53,6.91C17.73,6.91 20.83,8.31 20.83,11.5C20.83,13.21 19.91,14.41 18.41,15.15C18.32,15.1 18.24,15.05 18.19,15C17.83,14.84 17.23,14.66 17.23,14.66C17.23,14.66 20.21,14.44 20.21,11.47C20.21,8.5 17.09,8.45 17.09,8.45H10.24V15.61C7.69,14.87 5.93,13.3 5.93,11.5C5.93,8.96 9.33,6.91 13.53,6.91M13.68,10.89H15.75C15.75,10.89 16.7,10.84 16.7,11.83C16.7,12.8 15.75,12.8 15.75,12.8H13.68V10.89M13.65,15.3H14.57C14.75,15.3 14.84,15.35 15,15.5C15.13,15.6 15.27,15.79 15.39,15.96C14.84,16.03 14.26,16.06 13.65,16.06V15.3Z" />
    </symbol>

    <!-- visual studio code icon -->

    <symbol id="icon-visual-studio-code" viewBox="0 0 24 24">
    <title>Visual Studio Code</title>
        <path d="M17,16.47V7.39L11,11.93M2.22,9.19C1.92,8.87 1.91,8.37 2.2,8.04L3.4,6.93C3.6,6.75 4.09,6.67 4.45,6.93L7.87,9.54L15.8,2.29C16.12,1.97 16.67,1.84 17.3,2.17L21.3,4.08C21.66,4.29 22,4.62 22,5.23V18.73C22,19.13 21.71,19.56 21.4,19.73L17,21.83C16.68,21.96 16.08,21.84 15.87,21.63L7.85,14.33L4.45,16.93C4.07,17.19 3.6,17.12 3.4,16.93L2.2,15.83C1.88,15.5 1.92,14.96 2.25,14.63L5.25,11.93" />
    </symbol>

</svg>